<svg xmlns="http://www.w3.org/2000/svg" viewBox="0 0 256 256">
  <circle cx="128" cy="128" r="104" fill="#2AABEE"></circle>
  <path fill="#fff" d="M187.4 82.7c1.9-8.2-5.9-6.9-5.9-6.9S86.2 107.6 69 114.4c-8.2 3.2-7.5 7.8-7.5 7.8s-1.3 7.9 7.2 10.4c5.2 1.6 17.1 5.2 17.1 5.2s3.4.1 5.8-2 42.4-31.2 42.4-31.2 1.7-1.1 1.6.3-.3 4.5-.3 4.5-28.2 26-30.8 28.5c-2.3 2.2-1.3 4-1.3 4s9.7 33.1 10.5 36.1c.8 3 3 3.1 3 3.1s1.9.3 3.8-1.2 17.5-16 17.5-16 2.6-2.4 3.6-2.3c1.1.1 16.7 10.9 16.7 10.9s1.8 1 3.5.9c1.6-.1 2.5-1.6 2.5-1.6s13.6-73 14.2-76.5z"></path>
</svg>
