<svg xmlns="http://www.w3.org/2000/svg" viewBox="0 0 256 256">
  <path fill="#25D366" d="M128 24c-57.4 0-104 46.6-104 104 0 18.3 4.9 35.5 13.5 50.4L24 232l55.2-13.1C93.9 226.7 110.6 232 128 232c57.4 0 104-46.6 104-104S185.4 24 128 24z"></path>
  <path fill="#fff" d="M180.6 151.4c-2.8 7.8-16.1 14.7-22.7 15.7-6.1 1-14 .2-23.8-4.6-20.8-10-34.2-30.5-35.3-32s-8.4-11.2-8.4-21.3 5.1-15.1 7-17.2 4-2.6 5.5-2.6 2.7 0 3.9.1c1.2.1 3 .2 4.5 3.4 1.8 3.8 5.7 13.2 6.2 14.2.5 1 .8 2.2.1 3.4-.6 1.1-1 1.8-2 2.9-.9 1.1-2.1 2.5-3 3.4-1 1-2.1 2.1-.9 4.1 1.2 2 5.3 8.7 11.4 14.1 7.8 6.9 14.4 9.1 16.4 10.1 2 .9 3.6.8 4.9-.5 1.6-1.6 3.5-4.1 5.5-6.6 1.4-1.8 3.1-2.1 5-.9 1.9 1.1 12.3 5.8 14.4 6.7s3.5 1.5 4 2.3c.4.8.4 4.7-2.4 12.5z"></path>
</svg>
